<svg width="57" height="61" viewBox="0 0 57 61" fill="none" xmlns="http://www.w3.org/2000/svg">
<path d="M54.3341 29.9733H49.1876C48.7135 29.9736 48.2589 30.1627 47.9238 30.499C47.5887 30.8353 47.4004 31.2912 47.4004 31.7667V34.7356L32.8062 49.3722C32.3864 49.7934 31.8879 50.1274 31.3394 50.3553C30.7908 50.5833 30.2029 50.7006 29.6091 50.7006C29.0153 50.7006 28.4273 50.5833 27.8788 50.3553C27.3302 50.1274 26.8318 49.7934 26.412 49.3722L24.9528 47.9022C24.6463 47.595 24.4032 47.2302 24.2374 46.8286C24.0715 46.4271 23.9861 45.9968 23.9861 45.5622C23.9861 45.1276 24.0715 44.6973 24.2374 44.2958C24.4032 43.8943 24.6463 43.5295 24.9528 43.2222L36.9123 31.2222C37.177 30.9569 37.387 30.6419 37.5302 30.2952C37.6735 29.9486 37.7472 29.577 37.7472 29.2017C37.7472 28.8264 37.6735 28.4548 37.5302 28.1081C37.387 27.7614 37.177 27.4464 36.9123 27.1811L33.8953 24.1667C33.6306 23.9012 33.3163 23.6905 32.9704 23.5468C32.6245 23.4032 32.2537 23.3292 31.8793 23.3292C31.5049 23.3292 31.1342 23.4032 30.7883 23.5468C30.4424 23.6905 30.1281 23.9012 29.8634 24.1667L16.7638 37.3033C16.6071 37.4605 16.421 37.5852 16.2163 37.6702C16.0115 37.7553 15.7921 37.7991 15.5705 37.7991C15.3488 37.7991 15.1294 37.7553 14.9247 37.6702C14.7199 37.5852 14.5339 37.4605 14.3772 37.3033L13.1584 36.0811C12.3108 35.2306 11.8347 34.0774 11.8347 32.875C11.8347 31.6726 12.3108 30.5194 13.1584 29.6689L29.5166 13.27C29.9363 12.8489 30.4346 12.5149 30.9831 12.287C31.5315 12.0591 32.1194 11.9418 32.7131 11.9418C33.3068 11.9418 33.8946 12.0591 34.4431 12.287C34.9916 12.5149 35.4899 12.8489 35.9096 13.27L39.9858 17.3589C40.144 17.5177 40.3318 17.6437 40.5386 17.7296C40.7453 17.8156 40.9669 17.8598 41.1908 17.8598C41.4146 17.8598 41.6362 17.8156 41.8429 17.7296C42.0497 17.6437 42.2375 17.5177 42.3957 17.3589L46.7057 13.0389C46.8641 12.8802 46.9898 12.6917 47.0755 12.4843C47.1612 12.2769 47.2053 12.0545 47.2053 11.83C47.2053 11.6055 47.1612 11.3831 47.0755 11.1757C46.9898 10.9683 46.8641 10.7798 46.7057 10.6211L40.4191 4.31667C38.2478 2.13968 35.3031 0.916702 32.2328 0.916702C29.1624 0.916702 26.2178 2.13968 24.0465 4.31667L4.09405 24.3267C1.9232 26.5041 0.703674 29.4571 0.703674 32.5361C0.703674 35.6152 1.9232 38.5681 4.09405 40.7456L19.9858 56.6833C22.157 58.8603 25.1017 60.0833 28.172 60.0833C31.2424 60.0833 34.187 58.8603 36.3583 56.6833L47.4004 45.6111V57.1667C47.4004 57.642 47.5887 58.0979 47.9239 58.434C48.259 58.7701 48.7136 58.9589 49.1876 58.9589H49.7504C50.5259 58.9589 51.2696 58.6499 51.8179 58.1L55.267 54.6411C55.8154 54.0912 56.1235 53.3454 56.1235 52.5678V31.7667C56.1232 31.2909 55.9346 30.8348 55.599 30.4985C55.2635 30.1622 54.8085 29.9733 54.3341 29.9733Z" fill="#0071AA"/>
</svg>
